<?xml version="1.0" standalone="no"?>
<!DOCTYPE svg PUBLIC "-//W3C//DTD SVG 20010904//EN"
 "http://www.w3.org/TR/2001/REC-SVG-20010904/DTD/svg10.dtd">
<svg version="1.0" xmlns="http://www.w3.org/2000/svg"
 width="361.000000pt" height="362.000000pt" viewBox="0 0 361.000000 362.000000"
 preserveAspectRatio="xMidYMid meet">

<g transform="translate(0.000000,362.000000) scale(0.100000,-0.100000)"
fill="#000000" stroke="none">
<path d="M750 3575 c0 -14 -5 -25 -11 -25 -8 0 -8 -4 0 -14 9 -11 24 -196 30
-375 1 -14 3 -27 6 -30 7 -7 6 361 -2 422 -6 49 -23 66 -23 22z"/>
<path d="M793 3163 c4 -241 11 -499 17 -573 6 -74 11 -153 12 -175 0 -22 5
-43 12 -48 8 -5 6 -11 -6 -18 -11 -6 -18 -22 -18 -38 0 -15 -7 -50 -15 -77
-20 -62 -21 -291 -2 -327 l13 -24 54 43 c37 29 58 40 65 33 7 -7 5 -13 -5 -19
-11 -7 -7 -10 18 -10 17 0 32 -4 32 -10 0 -5 -7 -10 -16 -10 -14 0 -14 -3 -4
-15 10 -12 10 -15 -3 -15 -8 0 -17 -5 -19 -12 -2 -6 -36 -15 -76 -19 -40 -4
-86 -15 -102 -23 -24 -11 -30 -12 -30 -1 0 7 -7 15 -15 19 -8 3 -15 17 -15 31
0 20 -7 29 -31 37 l-31 11 32 13 c42 18 40 19 40 -13 0 -16 5 -35 10 -43 7
-11 10 -7 10 18 0 50 -32 90 -67 85 -22 -4 -25 -2 -13 6 12 9 10 11 -10 11
-14 0 -64 3 -112 6 -104 8 -165 -1 -149 -20 6 -7 10 -24 9 -37 -3 -20 3 -25
32 -30 l35 -6 -37 -2 c-40 -1 -47 -11 -23 -31 8 -7 15 -20 15 -29 0 -30 21
-90 36 -106 9 -9 11 -15 4 -15 -6 0 -8 -5 -5 -10 5 -8 163 -7 234 2 54 6 72
-27 60 -112 -4 -30 -7 -73 -7 -95 0 -23 5 -5 12 45 9 68 13 80 19 57 6 -24
-16 -249 -28 -284 -2 -7 15 -19 38 -28 75 -29 98 -61 111 -150 6 -39 6 -39 -8
-15 -9 14 -15 19 -16 13 0 -7 -4 -13 -9 -13 -14 0 -24 37 -14 52 13 22 12 38
-3 38 -8 0 -14 -8 -14 -18 0 -14 -13 -20 -64 -27 -42 -7 -62 -7 -60 0 2 5 -12
17 -31 26 -19 9 -35 13 -35 9 0 -4 -21 -7 -47 -7 -27 0 -70 -1 -98 -3 -27 -2
-60 2 -73 9 -13 7 -33 12 -45 11 -47 -4 -59 0 -53 16 4 12 1 14 -14 10 -11 -3
-29 -9 -40 -12 -11 -3 -20 -10 -20 -15 0 -5 -5 -9 -10 -9 -6 0 -32 -15 -60
-33 -34 -22 -48 -38 -47 -52 2 -16 -4 -20 -33 -21 -19 -1 -43 -2 -52 -3 -17
-1 -18 -19 -18 -231 0 -251 -5 -227 62 -283 24 -20 27 -31 39 -144 l13 -121
-34 -39 c-18 -21 -40 -42 -49 -48 -17 -10 -27 -57 -16 -74 3 -6 14 -2 25 9 11
11 29 20 39 20 11 0 23 5 26 10 4 6 16 10 28 9 41 -4 52 1 72 31 12 17 29 30
41 30 11 0 29 9 39 20 10 11 26 20 35 20 10 0 20 7 24 15 3 8 12 15 20 15 10
0 13 -6 10 -15 -4 -10 0 -15 11 -15 12 0 15 -5 10 -20 -5 -16 -2 -20 15 -20
12 0 18 -4 15 -10 -3 -5 -1 -10 5 -10 7 0 10 -7 6 -15 -3 -9 0 -15 9 -15 8 0
15 -6 15 -14 0 -7 9 -16 20 -19 13 -3 18 -11 14 -20 -3 -8 -1 -18 5 -22 17
-10 13 -25 -8 -25 -10 0 -21 -7 -25 -15 -3 -9 -18 -15 -35 -15 -20 0 -34 -7
-41 -19 -5 -11 -20 -21 -32 -23 -12 -2 -23 -9 -26 -15 -5 -16 133 -18 143 -3
3 6 17 10 30 10 15 0 26 7 30 20 4 14 15 20 36 20 16 0 29 3 29 8 0 4 14 15
30 24 29 16 42 48 20 48 -6 0 -10 8 -8 18 2 11 -4 18 -20 20 -12 2 -20 7 -17
12 3 5 -4 11 -14 15 -12 4 -18 12 -14 21 3 7 0 14 -6 14 -6 0 -8 7 -5 15 4 11
0 15 -16 15 -16 0 -20 4 -16 15 4 10 -1 15 -14 15 -13 0 -18 5 -14 15 4 10 0
15 -11 15 -9 0 -13 5 -10 10 3 6 1 10 -5 10 -7 0 -10 7 -6 15 4 11 -1 15 -19
15 -18 0 -23 4 -19 15 8 20 -29 20 -46 0 -7 -8 -23 -15 -35 -15 -13 0 -25 -7
-29 -15 -3 -8 -16 -15 -30 -15 -13 0 -26 -3 -28 -7 -1 -5 -18 -18 -36 -31
l-32 -23 0 30 c0 42 9 61 30 61 10 0 23 7 30 15 7 8 19 15 27 15 7 0 16 7 19
15 4 8 16 15 29 15 13 0 25 7 29 15 3 9 0 15 -10 15 -8 0 -12 5 -9 10 3 6 2
10 -4 10 -5 0 -9 9 -8 19 1 15 11 20 45 24 43 5 99 -13 85 -26 -3 -4 3 -7 15
-7 11 0 24 5 27 10 3 6 17 10 30 10 13 0 28 6 32 13 9 14 48 37 63 37 11 0 13
-30 4 -54 -3 -9 -12 -16 -19 -16 -19 0 -85 -40 -85 -51 0 -5 5 -9 11 -9 5 0 7
-5 4 -10 -3 -6 1 -13 9 -16 9 -3 13 -10 11 -15 -3 -5 5 -11 19 -15 14 -3 25
-9 24 -13 -3 -27 5 -41 23 -41 18 0 19 -2 9 -15 -11 -13 -8 -15 15 -15 19 0
26 -4 22 -14 -3 -8 1 -17 9 -20 9 -3 12 -10 9 -16 -3 -5 -1 -10 4 -10 6 0 11
-9 11 -20 0 -11 7 -20 15 -20 8 0 15 -4 15 -9 0 -5 15 -11 33 -14 27 -4 37 0
63 29 17 19 38 34 46 34 9 0 18 7 22 15 3 8 16 15 30 15 13 0 26 7 30 15 3 8
14 15 25 15 10 0 21 7 25 15 3 8 12 15 20 15 7 0 16 7 20 15 3 8 15 15 26 15
11 0 20 5 20 10 0 6 9 10 20 10 11 0 23 7 26 15 4 8 12 15 19 15 7 0 15 6 18
14 3 8 16 16 28 18 29 4 37 28 10 28 -12 0 -21 5 -21 11 0 14 -25 39 -39 39
-6 0 -11 7 -11 15 0 8 -9 15 -19 15 -11 0 -23 9 -26 20 -3 11 -13 20 -21 20
-8 0 -14 5 -14 10 0 6 -9 10 -20 10 -11 0 -20 5 -20 10 0 6 -7 10 -15 10 -13
0 -19 12 -16 32 2 16 -41 19 -58 4 -10 -9 -22 -16 -27 -16 -5 0 -20 -9 -34
-20 -14 -11 -33 -20 -42 -20 -10 0 -18 -4 -18 -10 0 -5 -11 -10 -25 -10 -14 0
-25 -4 -25 -10 0 -5 -5 -10 -11 -10 -6 0 -9 14 -7 31 3 32 10 37 101 78 54 24
157 29 204 9 15 -6 31 -11 36 -10 4 1 7 -2 7 -8 0 -5 7 -10 16 -10 8 0 12 -5
9 -10 -3 -6 1 -10 9 -10 9 0 16 -4 16 -10 0 -5 5 -10 11 -10 7 0 22 -11 35
-25 13 -14 28 -25 34 -25 6 0 8 -4 5 -10 -3 -5 3 -10 14 -10 12 0 21 -4 21
-10 0 -5 6 -10 14 -10 21 0 27 -28 15 -72 -14 -54 -30 -78 -51 -78 -10 0 -18
-4 -18 -10 0 -5 -11 -10 -25 -10 -16 0 -25 -6 -25 -15 0 -8 -7 -15 -15 -15 -9
0 -18 -7 -21 -15 -4 -8 -15 -15 -25 -15 -11 0 -22 -7 -25 -15 -4 -8 -15 -15
-25 -15 -11 0 -22 -7 -25 -15 -4 -8 -14 -15 -25 -15 -10 0 -22 -6 -26 -12 -10
-16 -39 -35 -75 -49 -16 -6 -28 -17 -28 -25 0 -8 -10 -14 -25 -14 -14 0 -29
-8 -35 -19 -14 -28 -13 -31 15 -31 18 0 23 -4 19 -15 -4 -10 0 -15 16 -15 17
0 20 -4 15 -20 -5 -14 -2 -20 9 -20 9 0 16 -4 16 -10 0 -6 32 -10 75 -10 60 0
75 3 75 15 0 8 -7 15 -16 15 -11 0 -14 6 -9 20 5 16 2 20 -15 20 -16 0 -20 5
-16 15 4 11 -1 15 -19 15 -16 0 -25 6 -25 15 0 10 10 15 29 15 20 0 30 6 34
20 3 12 14 20 25 20 11 0 22 7 26 15 3 8 12 15 21 15 8 0 15 7 15 15 0 10 10
15 30 15 20 0 30 5 30 15 0 8 9 15 19 15 10 0 22 7 25 15 4 12 14 14 40 10 20
-4 36 -2 40 4 9 14 36 2 36 -15 0 -8 7 -14 15 -14 8 0 15 -7 15 -15 0 -9 6
-12 15 -9 9 4 15 0 15 -9 0 -9 9 -19 20 -22 11 -3 20 -11 20 -16 0 -5 7 -9 15
-9 8 0 15 -9 15 -20 0 -14 7 -20 21 -20 12 0 19 -5 17 -12 -3 -7 -10 -13 -17
-13 -7 0 -18 -8 -25 -18 -7 -9 -21 -17 -30 -17 -9 0 -16 -8 -16 -20 0 -13 -7
-20 -20 -20 -10 0 -24 -9 -30 -20 -10 -19 -8 -20 70 -20 64 0 80 3 80 15 0 9
9 15 21 15 12 0 23 8 26 20 3 11 14 20 24 20 11 0 19 6 19 14 0 8 10 16 23 18
27 4 38 48 12 48 -9 0 -19 9 -22 20 -3 11 -13 20 -23 20 -10 0 -21 7 -24 16
-3 9 -12 14 -20 11 -8 -3 -16 2 -19 14 -3 10 -12 19 -21 19 -9 0 -16 7 -16 15
0 8 -9 15 -20 15 -11 0 -20 7 -20 15 0 8 -7 15 -16 15 -18 0 -44 23 -44 39 0
6 -7 11 -15 11 -8 0 -15 7 -15 15 0 8 -7 15 -15 15 -19 0 -19 5 5 74 19 56 39
86 59 86 5 0 18 11 29 25 11 14 27 25 36 25 9 0 16 4 16 8 0 5 16 14 35 22 19
7 36 19 39 27 3 7 12 13 21 13 8 0 15 3 15 8 0 4 12 13 27 20 32 15 203 17
203 2 0 -5 7 -10 15 -10 25 0 51 -17 129 -87 14 -13 32 -23 40 -23 15 0 26
-21 26 -51 0 -22 -28 -26 -36 -4 -4 8 -12 15 -18 15 -7 0 -22 9 -34 20 -12 11
-26 20 -31 20 -6 0 -14 6 -18 13 -4 7 -29 23 -55 36 -27 13 -48 28 -48 33 0 4
-9 8 -20 8 -11 0 -20 5 -20 10 0 6 -13 10 -30 10 -16 0 -30 -4 -30 -10 0 -5
-5 -10 -10 -10 -6 0 -20 -9 -32 -20 -12 -11 -28 -20 -35 -20 -7 0 -13 -7 -13
-15 0 -8 -9 -15 -20 -15 -12 0 -31 -10 -43 -22 -12 -13 -29 -24 -37 -26 -8 -2
-16 -8 -18 -13 -2 -5 -10 -9 -18 -9 -8 0 -14 -7 -14 -15 0 -8 -9 -15 -20 -15
-11 0 -20 -4 -20 -10 0 -5 -6 -10 -14 -10 -23 0 -26 -26 -5 -44 11 -9 23 -16
28 -16 5 0 11 -7 15 -15 3 -8 12 -15 21 -15 8 0 15 -7 15 -15 0 -8 5 -15 11
-15 7 0 22 -11 35 -25 13 -14 32 -25 44 -25 11 0 20 -7 20 -15 0 -10 7 -15 18
-13 10 2 16 -2 14 -10 -1 -8 7 -16 18 -19 11 -3 20 -12 20 -19 0 -8 9 -14 20
-14 11 0 20 -7 20 -15 0 -10 11 -15 35 -15 24 0 35 5 35 15 0 9 9 15 25 15 16
0 25 6 25 15 0 8 7 15 15 15 8 0 15 9 15 20 0 13 7 20 19 20 10 0 22 7 25 16
3 8 10 12 16 9 6 -3 13 1 16 9 3 9 12 16 20 16 8 0 14 7 14 15 0 8 7 15 15 15
8 0 15 7 15 15 0 8 7 15 15 15 8 0 15 5 15 10 0 20 38 10 44 -12 10 -38 7 -58
-9 -58 -8 0 -15 -7 -15 -15 0 -8 -7 -15 -15 -15 -8 0 -15 -4 -15 -10 0 -5 -9
-10 -20 -10 -13 0 -20 -7 -20 -20 0 -11 -4 -20 -10 -20 -5 0 -10 -7 -10 -15 0
-8 -9 -15 -20 -15 -11 0 -20 -4 -20 -10 0 -5 -7 -10 -15 -10 -9 0 -19 -8 -22
-17 -4 -10 -12 -22 -20 -26 -18 -11 -17 -47 2 -47 8 0 15 -7 15 -15 0 -9 9
-15 21 -15 12 0 23 -8 26 -20 3 -13 14 -20 28 -20 14 0 25 -7 28 -20 5 -18 14
-20 106 -20 99 0 101 1 91 20 -6 11 -8 20 -4 20 3 0 1 6 -5 14 -9 11 -9 15 1
19 10 4 10 7 1 14 -7 5 -14 18 -16 28 -2 11 -7 27 -10 35 -4 8 -9 38 -11 65
-11 114 -18 161 -27 185 -4 14 -11 54 -14 90 -12 151 -17 197 -26 225 -21 71
-35 306 -19 335 12 22 11 23 -20 16 -18 -3 -47 -6 -65 -6 l-32 0 10 -51 c8
-39 7 -53 -3 -59 -10 -6 -9 -9 1 -13 8 -3 -31 -5 -86 -5 -56 -1 -112 -3 -125
-6 -32 -8 -86 8 -82 23 1 7 -6 9 -21 6 -18 -5 -26 -1 -35 19 -11 25 -32 36
-32 18 0 -5 -11 -22 -25 -38 l-25 -29 15 50 c8 28 18 60 21 72 3 11 15 24 27
28 17 5 9 10 -38 22 -33 9 -62 19 -65 23 -3 4 -19 15 -37 24 -39 20 -53 43
-53 91 0 25 8 43 25 61 34 34 120 72 197 88 34 7 64 18 66 24 2 6 -6 20 -17
31 -27 27 -27 55 1 81 19 17 19 20 5 20 -30 0 -29 26 3 60 21 23 28 36 20 44
-16 16 -12 36 9 36 10 0 21 6 24 13 7 18 72 36 151 41 38 3 70 7 74 10 10 11
22 6 22 -9 0 -8 12 -18 28 -21 36 -9 75 -41 106 -87 30 -44 31 -55 12 -83 -12
-17 -12 -22 0 -39 8 -10 14 -25 14 -32 0 -20 -39 -55 -53 -46 -15 9 -77 10
-77 1 0 -3 -3 -13 -6 -21 -4 -11 11 -18 65 -30 243 -55 293 -199 96 -279 l-30
-13 45 -3 46 -3 -6 -52 c-7 -68 -13 -75 -66 -88 -52 -13 -51 -9 -29 -174 8
-60 15 -111 15 -112 0 -2 10 -3 23 -3 12 0 29 9 37 20 8 11 20 20 27 20 7 0
13 5 13 10 0 6 19 10 41 10 36 0 40 -2 29 -15 -7 -8 -19 -15 -26 -15 -8 0 -14
-7 -14 -15 0 -8 -8 -15 -18 -15 -10 0 -29 -11 -42 -26 -16 -16 -31 -23 -45
-20 -18 5 -20 1 -17 -39 2 -25 9 -46 16 -46 29 -3 52 5 67 22 9 10 21 19 28
19 6 0 11 5 11 10 0 6 9 10 20 10 11 0 20 5 20 11 0 14 25 39 39 39 6 0 11 5
11 10 0 6 7 10 15 10 8 0 15 4 15 8 0 5 8 19 19 30 15 18 29 22 83 22 47 0 69
-4 78 -15 7 -9 9 -19 5 -23 -4 -4 -10 -1 -12 6 -3 6 -16 12 -29 12 -14 0 -22
-4 -19 -10 3 -5 -1 -10 -9 -10 -9 0 -16 -4 -16 -10 0 -5 -7 -10 -15 -10 -8 0
-15 -4 -15 -10 0 -5 -7 -10 -15 -10 -8 0 -15 -6 -15 -13 0 -18 -34 -57 -49
-57 -15 0 -41 -25 -41 -39 0 -6 -7 -11 -15 -11 -8 0 -15 -4 -15 -10 0 -5 -9
-10 -21 -10 -15 0 -19 -4 -15 -16 3 -9 6 -18 6 -20 0 -2 6 -4 13 -4 21 0 77
-30 77 -41 0 -5 6 -9 14 -9 7 0 19 -7 26 -15 7 -8 23 -15 36 -15 13 0 24 -5
24 -10 0 -6 8 -14 18 -17 9 -4 27 -17 39 -30 12 -13 27 -23 33 -23 5 0 19 -9
30 -20 11 -11 29 -20 39 -20 10 0 21 -7 25 -15 3 -8 14 -15 25 -15 11 0 23 -4
26 -10 3 -5 20 -10 36 -10 18 0 28 4 24 10 -3 6 3 10 14 10 12 0 21 7 21 15 0
8 7 15 16 15 11 0 14 5 10 16 -7 18 16 44 39 44 11 0 15 5 11 15 -3 9 0 15 9
15 8 0 15 7 15 15 0 8 7 15 15 15 9 0 12 6 9 15 -5 11 -2 13 12 8 13 -5 16 -3
11 10 -4 11 -1 17 8 17 8 0 15 7 15 15 0 8 5 15 11 15 6 0 9 9 6 20 -5 19 0
20 63 20 74 0 80 -5 80 -63 0 -24 -3 -28 -12 -19 -20 20 -54 14 -68 -13 -7
-14 -17 -25 -21 -25 -5 0 -6 -7 -3 -15 4 -10 0 -15 -11 -15 -11 0 -15 -5 -11
-15 4 -11 -2 -15 -20 -15 -14 0 -22 -4 -19 -10 3 -5 1 -10 -5 -10 -7 0 -9 -8
-5 -20 5 -15 2 -20 -10 -20 -11 0 -15 -5 -11 -15 4 -10 -1 -15 -14 -15 -13 0
-18 -5 -14 -15 4 -10 0 -15 -15 -15 -13 0 -19 -5 -15 -14 3 -7 -2 -16 -10 -19
-23 -9 -8 -47 19 -47 13 0 25 -7 29 -15 3 -8 14 -15 25 -15 11 0 26 -8 33 -18
7 -10 33 -28 58 -41 38 -19 58 -21 135 -19 72 3 83 5 58 12 -18 5 -38 15 -44
22 -6 8 -20 14 -30 14 -10 0 -23 9 -29 20 -6 11 -21 20 -34 20 -13 0 -26 7
-30 15 -3 8 -14 15 -25 15 -11 0 -23 5 -26 10 -3 6 1 10 11 10 11 0 15 6 11
20 -4 15 0 20 14 20 12 0 16 5 13 15 -4 10 0 15 11 15 11 0 15 5 11 15 -3 9 0
15 9 15 14 0 20 18 16 48 -1 6 8 12 20 12 20 0 21 -4 16 -47 -10 -81 -12 -88
-24 -96 -22 -14 -1 -38 54 -63 30 -14 56 -31 59 -39 3 -8 18 -17 34 -20 16 -3
31 -13 34 -21 7 -19 66 -19 66 1 0 8 7 15 15 15 18 0 18 5 5 31 -9 16 -7 19 9
19 14 0 19 5 15 14 -4 9 2 16 16 18 19 3 20 4 5 26 -9 12 -27 22 -40 22 -14 0
-29 9 -35 20 -6 11 -21 20 -35 20 -13 0 -27 5 -30 10 -3 6 -17 10 -31 10 -17
0 -24 5 -24 20 0 28 21 34 56 15 16 -8 34 -15 40 -15 7 0 15 -7 18 -16 3 -8
10 -13 15 -10 5 3 20 -3 34 -14 14 -11 36 -20 50 -20 14 0 27 -7 31 -15 3 -8
12 -15 21 -15 8 0 15 -6 15 -14 0 -8 3 -21 6 -30 4 -12 0 -16 -15 -16 -18 0
-20 -3 -11 -19 8 -16 6 -20 -13 -24 -20 -3 -20 -4 -4 -12 13 -5 26 0 48 21 54
51 54 53 -17 150 -36 49 -72 100 -82 114 -9 14 -46 63 -81 110 -35 47 -58 86
-52 88 7 2 22 -7 34 -20 12 -12 34 -29 50 -37 28 -15 38 -35 12 -25 -29 11
-15 -18 32 -66 26 -27 51 -46 55 -44 4 3 5 -3 1 -12 -4 -10 -2 -15 3 -11 5 3
16 -9 23 -26 8 -18 23 -42 34 -54 11 -13 17 -23 14 -23 -4 0 1 -9 10 -20 10
-11 21 -16 26 -11 4 4 8 93 9 197 0 171 -2 189 -19 201 -28 19 -52 43 -94 96
-24 30 -41 44 -43 35 -13 -40 -14 -38 -9 17 3 33 9 77 14 97 6 25 6 45 -3 62
-9 20 -9 29 0 38 16 16 15 48 -2 48 -24 0 -38 26 -21 40 14 12 22 60 9 60 -9
0 -34 -28 -34 -38 0 -16 -38 -21 -44 -6 -3 8 -12 14 -21 14 -13 0 -14 -4 -5
-20 9 -17 8 -20 -10 -20 -11 0 -20 4 -20 10 0 5 -6 7 -13 4 -8 -3 -20 2 -27
10 -7 9 -16 13 -21 10 -5 -3 -9 0 -9 5 0 6 -7 11 -15 11 -18 0 -18 -5 -5 -29
9 -18 6 -18 -63 -5 -40 8 -85 13 -102 13 -47 -3 -67 0 -62 8 3 5 -14 9 -36 10
-86 4 -81 2 -58 22 12 10 21 22 21 26 0 5 -8 1 -17 -7 -28 -24 -47 -33 -38
-19 5 9 1 12 -11 11 -24 -3 -64 10 -64 19 0 4 17 6 39 4 24 -2 43 2 50 11 9
11 2 14 -35 20 -70 9 -73 8 -67 -15 6 -20 5 -21 -18 -7 -13 8 -31 14 -39 14
-8 -1 -21 7 -28 17 -18 23 -44 18 -48 -10 -3 -17 0 -20 16 -16 12 3 20 0 20
-6 0 -7 -5 -9 -11 -6 -5 4 -18 0 -28 -9 -17 -16 -19 -15 -36 10 -16 25 -17 25
-31 6 -7 -11 -19 -60 -25 -111 -12 -85 -14 -91 -36 -91 -29 0 -88 24 -98 39
-4 7 -1 19 7 28 11 14 10 15 -10 9 -20 -7 -22 -4 -23 36 -1 24 -1 46 0 51 0 4
-5 7 -11 8 -7 0 -4 4 7 9 11 5 53 9 93 9 65 1 74 3 79 21 3 11 10 20 15 20 5
0 6 4 3 10 -11 17 23 67 61 89 68 40 155 54 309 48 77 -3 152 -9 166 -12 25
-7 26 -6 28 51 1 31 -3 70 -10 86 -15 36 0 144 37 256 14 45 24 89 22 99 -5
27 -62 50 -168 69 -149 25 -179 18 -141 -34 26 -37 26 -65 4 -142 -20 -67 -39
-75 -35 -14 2 22 -4 53 -12 69 -20 37 -21 89 -2 104 23 19 27 51 6 51 -10 0
-21 7 -24 15 -13 35 98 47 159 18 19 -9 37 -15 39 -12 2 2 6 67 9 144 3 80 2
114 -3 80 -16 -138 16 895 40 1265 15 220 19 200 -41 200 l-52 0 6 -157 c3
-88 1 -180 -4 -208 -21 -107 -28 -179 -39 -425 -7 -140 -16 -304 -21 -365 l-8
-110 5 135 c13 405 40 1000 49 1083 l6 47 -104 0 -104 0 -9 -297 c-5 -164 -9
-471 -9 -683 -1 -212 -2 -411 -3 -443 l-2 -58 -52 7 c-60 8 -68 15 -68 65 0
22 -7 42 -16 50 -14 11 -136 14 -678 16 -364 1 -672 2 -686 2 -14 1 -37 -8
-52 -19 -20 -15 -29 -16 -36 -7 -9 11 -32 95 -47 171 -3 15 -7 27 -9 25 -4 -6
20 -278 25 -283 2 -2 27 3 54 10 28 8 99 19 159 25 104 10 109 10 131 -11 12
-11 28 -33 36 -48 8 -15 33 -55 57 -89 23 -34 41 -66 40 -71 -2 -5 8 -21 22
-34 14 -13 31 -35 39 -49 13 -22 12 -22 -17 4 -27 26 -31 27 -35 10 -4 -12 -5
-9 -4 7 2 19 -3 26 -22 28 -17 3 -22 0 -19 -10 3 -7 -2 -20 -10 -28 -14 -13
-15 -12 -10 2 7 16 -22 32 -51 28 -7 -1 -10 3 -7 9 4 6 -6 8 -28 4 -29 -5 -37
-1 -57 26 -28 38 -49 26 -24 -13 17 -25 17 -26 -1 -19 -42 15 -71 96 -32 85
10 -2 18 -2 18 2 0 10 -58 36 -77 34 -32 -2 -54 2 -49 10 2 4 -3 8 -13 9 -28
2 -91 31 -91 41 0 6 -6 10 -12 9 -44 -1 -148 7 -126 10 14 2 29 10 31 17 3 8
9 63 13 122 3 60 12 115 18 123 9 12 8 13 -3 6 -11 -6 -12 -5 -5 6 4 8 9 19
10 25 1 7 9 43 17 80 21 92 54 283 66 385 12 98 47 495 55 622 l5 87 -33 0
-32 0 -13 -207 c-15 -250 -39 -515 -47 -522 -4 -3 -4 19 0 49 23 211 49 680
37 680 -9 0 -12 -31 -31 -330 -11 -182 -46 -547 -59 -625 -12 -73 -13 -9 -1
90 5 44 14 145 20 225 5 80 17 233 25 340 8 107 15 219 15 248 l0 52 -105 0
-105 0 -1 -47 c-1 -27 -5 -97 -9 -158 -7 -109 -8 -108 -6 48 1 129 -2 157 -13
157 -12 0 -13 -66 -8 -437z m44 70 c-1 -43 -3 -10 -3 72 0 83 2 118 3 78 2
-40 2 -107 0 -150z m130 -20 c-2 -16 -4 -3 -4 27 0 30 2 43 4 28 2 -16 2 -40
0 -55z m-7 -134 c0 -33 -3 -58 -7 -56 -8 5 -5 117 3 117 2 0 4 -27 4 -61z
m-113 -121 c-2 -29 -3 -8 -3 47 0 55 1 79 3 53 2 -26 2 -71 0 -100z m103 -45
c0 -37 -4 -63 -8 -57 -8 9 -4 124 4 124 2 0 4 -30 4 -67z m77 -100 c-3 -10 -5
-4 -5 12 0 17 2 24 5 18 2 -7 2 -21 0 -30z m-170 -75 c-2 -18 -4 -4 -4 32 0
36 2 50 4 33 2 -18 2 -48 0 -65z m100 20 c-2 -13 -4 -3 -4 22 0 25 2 35 4 23
2 -13 2 -33 0 -45z m-18 0 c0 -45 -2 -49 -10 -29 -9 22 -4 81 7 81 2 0 4 -24
3 -52z m8 -290 c-1 -46 -3 -11 -3 77 0 88 2 125 3 83 2 -42 2 -114 0 -160z
m-18 104 c0 -59 -4 -125 -8 -147 -6 -28 -9 4 -10 113 -1 100 2 151 9 147 6 -4
10 -52 9 -113z m-12 -319 c-2 -16 -4 -3 -4 27 0 30 2 43 4 28 2 -16 2 -40 0
-55z m1950 -20 c-2 -21 -4 -6 -4 32 0 39 2 55 4 38 2 -18 2 -50 0 -70z m-2052
-37 c-4 -36 -12 -66 -17 -66 -5 0 -7 8 -4 18 2 9 8 41 11 70 10 76 18 57 10
-22z m2042 -63 c-3 -10 -5 -2 -5 17 0 19 2 27 5 18 2 -10 2 -26 0 -35z m-57
-128 c40 -21 38 -26 -5 -12 -19 6 -35 14 -35 19 0 11 7 10 40 -7z m-2164 -57
c-22 -5 -41 -6 -44 -4 -7 7 62 24 73 17 5 -3 -8 -9 -29 -13z m762 -34 c13 -9
29 -13 37 -10 8 3 15 0 15 -6 0 -6 8 -17 18 -25 15 -13 15 -13 -4 -4 -18 9
-23 7 -29 -12 -4 -12 -8 -25 -10 -29 -1 -5 -3 -10 -4 -13 0 -3 -11 3 -23 15
-12 11 -26 20 -30 20 -16 0 -26 -44 -14 -59 8 -11 8 -13 -1 -8 -7 4 -17 -4
-26 -22 -11 -22 -12 -31 -3 -35 8 -3 8 -5 0 -5 -6 -1 -18 7 -25 16 -8 9 -9 14
-2 10 7 -4 15 4 21 22 9 25 8 31 -6 34 -13 4 -11 5 4 6 13 1 24 10 27 23 7 26
7 27 -23 31 -30 5 -37 22 -13 31 10 3 25 9 33 12 9 3 11 2 5 -3 -16 -13 -16
-33 0 -33 14 0 19 14 18 48 -1 16 8 15 35 -4z m-753 -14 c-3 -5 -10 -10 -16
-10 -5 0 -9 5 -9 10 0 6 7 10 16 10 8 0 12 -4 9 -10z m-75 -10 c-8 -5 -19 -10
-25 -10 -5 0 -3 5 5 10 8 5 20 10 25 10 6 0 3 -5 -5 -10z m110 -11 c0 -18 -2
-19 -15 -9 -15 12 -12 30 6 30 5 0 9 -10 9 -21z m-67 -11 c21 -17 12 -58 -13
-58 -10 0 -21 -6 -23 -12 -4 -11 -3 41 2 75 1 11 15 9 34 -5z m34 -60 c-3 -7
-5 -2 -5 12 0 14 2 19 5 13 2 -7 2 -19 0 -25z m-220 0 c-3 -8 -6 -5 -6 6 -1
11 2 17 5 13 3 -3 4 -12 1 -19z m283 -18 c0 -5 -4 -10 -9 -10 -6 0 -13 5 -16
10 -3 6 1 10 9 10 9 0 16 -4 16 -10z m693 -15 c-3 -9 -8 -14 -10 -11 -3 3 -2
9 2 15 9 16 15 13 8 -4z m-703 -15 c13 -8 12 -10 -2 -10 -10 0 -21 0 -25 -1
-4 0 -9 4 -11 10 -5 14 18 14 38 1z m2130 -157 c0 -5 -5 -15 -10 -23 -8 -12
-10 -11 -10 8 0 12 5 22 10 22 6 0 10 -3 10 -7z m-1548 -528 c-2 -14 -6 -25
-8 -25 -2 0 -4 11 -4 25 0 14 4 25 9 25 4 0 6 -11 3 -25z m184 8 c-2 -10 -10
-37 -17 -60 -7 -24 -16 -43 -20 -43 -10 0 -29 58 -29 91 0 27 3 29 36 29 29 0
34 -3 30 -17z m-470 -317 l15 -23 -83 -5 c-46 -3 -84 -4 -86 -3 -2 2 6 11 17
22 31 29 41 68 41 164 l0 90 30 -16 c16 -8 31 -15 35 -15 3 0 6 19 7 43 1 23
4 -20 5 -96 3 -102 8 -145 19 -161z m534 -36 c0 -5 -7 -10 -15 -10 -8 0 -15
-4 -15 -10 0 -5 -7 -10 -15 -10 -8 0 -15 -4 -15 -10 0 -5 -6 -10 -14 -10 -8 0
-17 -6 -19 -12 -4 -9 -6 -7 -6 3 -1 23 31 56 59 62 14 2 28 5 33 6 4 0 7 -3 7
-9z m470 -7 c0 -14 -2 -15 -9 -4 -5 7 -13 11 -19 7 -6 -3 -13 -2 -17 4 -4 6 5
10 19 10 18 0 26 -5 26 -17z m-735 -3 c-4 -6 5 -10 19 -10 14 0 26 -4 26 -10
0 -5 7 -10 16 -10 8 0 12 -4 9 -10 -3 -5 -1 -10 4 -10 6 0 11 -9 11 -20 0 -13
-7 -20 -20 -20 -11 0 -20 7 -20 15 0 8 -14 17 -35 21 -19 3 -35 11 -35 16 0
12 -21 33 -40 41 -8 3 4 6 28 6 26 1 41 -3 37 -9z m519 -95 c18 -14 38 -25 44
-25 7 0 12 -5 12 -11 0 -6 6 -9 12 -7 13 5 28 -4 56 -34 9 -10 22 -18 29 -18
7 0 13 -4 13 -10 0 -5 7 -10 15 -10 8 0 15 -4 15 -10 0 -5 -4 -10 -10 -10 -5
0 -10 -7 -10 -15 0 -8 -9 -15 -20 -15 -11 0 -20 -4 -20 -10 0 -5 -7 -10 -15
-10 -8 0 -15 -6 -15 -14 0 -7 -9 -16 -21 -19 -12 -3 -18 -10 -14 -16 4 -7 -4
-11 -19 -11 -16 0 -26 -6 -26 -15 0 -8 -9 -15 -20 -15 -11 0 -20 -7 -20 -15 0
-24 -23 -17 -50 15 -13 17 -29 30 -36 30 -7 0 -14 7 -18 15 -3 8 -12 15 -21
15 -8 0 -15 5 -15 10 0 6 -9 10 -20 10 -11 0 -20 6 -20 13 0 7 -16 19 -35 27
-39 15 -46 30 -15 30 11 0 20 5 20 10 0 6 7 10 15 10 9 0 18 7 21 15 4 8 13
15 20 15 8 0 17 7 20 15 4 8 12 15 20 15 8 0 14 5 14 10 0 6 8 10 18 10 9 1
26 12 37 25 11 14 21 25 23 25 2 0 18 -11 36 -25z m792 11 c18 -19 18 -46 -1
-46 -8 0 -15 -4 -15 -10 0 -5 -7 -10 -15 -10 -8 0 -15 -7 -15 -15 0 -8 -9 -15
-21 -15 -11 0 -17 -4 -14 -10 3 -5 -1 -10 -10 -10 -21 0 -15 -20 11 -34 10 -6
22 -15 25 -19 3 -4 16 -9 27 -10 17 -1 22 -8 22 -28 0 -23 -3 -26 -22 -22 -13
3 -33 17 -45 31 -27 29 -68 52 -94 52 -11 0 -19 5 -19 10 0 6 7 10 16 10 21 0
42 22 49 53 5 17 12 24 21 20 8 -3 14 1 14 11 0 9 8 16 21 16 11 0 17 5 14 10
-3 6 1 10 9 10 9 0 16 5 16 10 0 14 9 12 26 -4z m-1600 -21 c3 -14 12 -25 20
-25 8 0 14 -4 14 -10 0 -5 9 -10 20 -10 11 0 20 -4 20 -10 0 -5 7 -10 16 -10
9 0 14 -6 12 -12 -5 -15 9 -31 35 -41 19 -7 14 -27 -7 -27 -22 0 -66 -25 -66
-37 0 -7 -8 -13 -19 -13 -10 0 -24 -7 -31 -15 -7 -8 -21 -15 -31 -15 -11 0
-19 -4 -19 -9 0 -5 -10 -13 -22 -17 -12 -3 -33 -17 -47 -30 -30 -28 -37 -29
-58 -9 -8 8 -19 13 -24 10 -5 -4 -9 2 -9 12 0 11 -3 14 -8 6 -4 -6 -6 14 -5
45 0 32 5 57 10 57 4 0 7 -3 6 -7 -2 -5 2 -8 7 -8 6 0 10 -7 10 -15 0 -8 9
-15 21 -15 11 0 17 -4 14 -10 -4 -6 7 -10 26 -10 21 0 39 8 55 25 13 14 30 25
37 25 8 0 17 7 21 15 3 8 17 15 31 15 16 0 25 6 25 15 0 8 -9 15 -21 15 -11 0
-17 5 -14 10 3 6 0 10 -9 10 -8 0 -17 13 -21 30 -6 25 -11 30 -36 30 -17 0
-32 -6 -35 -15 -4 -8 -14 -15 -24 -15 -10 0 -20 -7 -24 -15 -3 -8 -12 -15 -21
-15 -8 0 -15 -4 -15 -10 0 -5 -11 -10 -25 -10 -20 0 -25 5 -25 25 0 20 5 25
25 25 14 0 25 5 25 10 0 6 7 10 16 10 8 0 32 11 52 25 20 14 42 25 49 25 7 0
13 5 13 10 0 21 30 9 36 -15z m2574 -53 c0 -20 -20 -2 -44 40 l-19 33 32 -29
c17 -17 31 -36 31 -44z m-833 -2 c22 0 93 -32 93 -42 0 -4 9 -8 20 -8 11 0 20
-3 20 -6 0 -10 -54 -60 -73 -67 -10 -4 -15 -11 -12 -17 3 -5 1 -10 -5 -10 -7
0 -10 -7 -6 -15 4 -10 -1 -15 -14 -15 -13 0 -18 -5 -14 -15 4 -10 0 -15 -15
-15 -12 0 -21 -5 -21 -10 0 -6 -11 -3 -25 7 -30 22 -33 53 -5 53 11 0 20 7 20
15 0 8 7 15 15 15 8 0 15 7 15 15 0 8 7 15 16 15 8 0 12 5 9 10 -3 6 0 10 8
10 10 0 13 7 10 20 -3 11 -14 20 -24 20 -11 0 -19 5 -19 10 0 6 -7 10 -15 10
-17 0 -18 2 -8 26 4 11 8 13 11 6 2 -7 11 -12 19 -12z m-2437 -8 c0 -4 -13
-23 -30 -42 l-29 -35 -1 43 c0 40 1 42 30 42 17 0 30 -4 30 -8z m645 -62 c3
-5 3 -10 -2 -11 -4 0 -16 -2 -25 -4 -10 -2 -18 0 -18 4 0 21 34 29 45 11z
m2375 -75 c7 -8 17 -15 23 -15 10 0 17 -8 57 -61 l19 -26 -27 5 c-15 3 -31 11
-35 18 -4 8 -13 14 -19 14 -6 0 -28 7 -48 16 -30 14 -36 21 -32 40 5 28 42 33
62 9z m-1177 -192 c5 -27 3 -32 -18 -37 -17 -4 -22 -11 -18 -26 3 -11 14 -20
24 -20 12 0 23 -10 29 -26 13 -33 13 -64 0 -64 -5 0 -10 7 -10 15 0 10 -10 15
-30 15 -20 0 -30 5 -30 15 0 9 -7 18 -16 22 -9 3 -28 17 -42 29 -19 19 -21 24
-8 24 9 0 16 8 16 20 0 13 7 20 20 20 11 0 20 7 20 15 0 8 9 15 20 15 12 0 20
7 20 17 0 26 17 2 23 -34z m1142 -63 c3 -5 -1 -10 -9 -10 -8 0 -18 5 -21 10
-3 6 1 10 9 10 8 0 18 -4 21 -10z"/>
<path d="M1374 1886 c-10 -21 -8 -26 11 -36 41 -22 64 18 28 46 -24 18 -26 17
-39 -10z"/>
<path d="M920 980 c0 -5 5 -10 11 -10 5 0 7 5 4 10 -3 6 -8 10 -11 10 -2 0 -4
-4 -4 -10z"/>
<path d="M1713 576 c-13 -6 -23 -16 -23 -23 0 -7 -7 -13 -15 -13 -9 0 -18 -7
-21 -15 -4 -8 -12 -15 -20 -15 -8 0 -14 -7 -14 -15 0 -8 9 -15 21 -15 11 0 17
-5 14 -10 -3 -6 2 -13 12 -17 10 -4 28 -17 40 -30 26 -27 78 -31 87 -7 3 8 10
13 15 10 5 -4 28 12 51 33 40 37 46 61 14 61 -8 0 -14 5 -14 10 0 6 -7 10 -15
10 -8 0 -15 7 -15 15 0 9 -9 15 -25 15 -14 0 -25 5 -25 10 0 13 -38 11 -67 -4z
m57 -76 c0 -5 -7 -10 -15 -10 -8 0 -15 5 -15 10 0 6 7 10 15 10 8 0 15 -4 15
-10z"/>
<path d="M1252 3575 c0 -16 2 -22 5 -12 2 9 2 23 0 30 -3 6 -5 -1 -5 -18z"/>
<path d="M2246 3488 c-10 -197 -17 -835 -10 -873 8 -45 20 -30 22 27 1 23 7
47 12 52 7 7 10 -43 11 -149 l2 -160 8 130 c12 184 15 203 19 100 l4 -90 6 90
6 90 4 -85 3 -85 7 100 c4 55 8 140 9 189 1 102 6 109 14 18 2 -35 7 -65 10
-68 3 -3 13 10 22 28 14 27 18 82 25 318 5 157 11 329 14 383 l4 97 -93 0 -93
0 -6 -112z"/>
<path d="M3056 3568 c-3 -18 -8 -82 -11 -143 -21 -413 -35 -739 -39 -920 -4
-207 -3 -201 19 55 3 41 8 93 11 115 2 22 15 211 29 420 13 209 27 408 31 443
5 58 4 62 -15 62 -15 0 -21 -8 -25 -32z"/>
<path d="M3127 3568 c-8 -44 -23 -240 -47 -613 -12 -170 -25 -362 -29 -425 -5
-63 -9 -126 -10 -140 0 -14 -3 -43 -6 -65 -3 -22 -2 -33 2 -25 9 22 33 43 40
36 4 -3 5 -32 4 -64 -7 -152 -6 -232 1 -232 4 0 8 17 8 38 0 20 5 93 10 162 6
69 19 258 30 420 11 161 24 364 30 450 6 85 17 223 25 305 20 199 21 185 -19
185 -30 0 -34 -3 -39 -32z"/>
<path d="M3299 3578 c0 -13 -2 -50 -5 -83 -12 -164 -12 -185 -1 -185 9 0 9 -2
0 -8 -14 -9 -15 -82 0 -82 5 0 3 -8 -6 -17 -18 -21 -20 -113 -3 -113 6 0 5 -4
-3 -9 -8 -5 -11 -16 -7 -26 3 -10 1 -24 -6 -32 -9 -11 -9 -16 3 -24 10 -6 10
-9 2 -9 -7 0 -13 -7 -13 -15 0 -8 5 -15 12 -15 6 0 3 -9 -7 -20 -11 -12 -13
-20 -6 -20 7 0 6 -8 -5 -25 -15 -23 -15 -25 1 -25 15 0 15 -2 4 -16 -10 -13
-10 -17 2 -25 11 -7 11 -9 0 -9 -8 0 -11 -7 -8 -20 3 -11 1 -22 -3 -25 -5 -3
-8 -20 -8 -38 0 -17 -1 -34 -2 -37 -2 -3 -4 -43 -6 -90 -1 -47 -3 -85 -4 -85
-2 0 -4 -34 -5 -75 -2 -41 -6 -83 -10 -92 -4 -9 -4 -21 -1 -27 4 -5 2 -12 -2
-15 -5 -3 -10 -47 -10 -98 -2 -89 -7 -248 -13 -370 -2 -31 -7 -54 -12 -51 -5
3 -4 -4 2 -14 6 -11 9 -22 6 -24 -2 -2 -6 -22 -8 -44 -3 -22 -8 -51 -11 -65
-10 -43 -15 -110 -7 -110 6 0 -2 -134 -14 -216 -4 -32 -2 -43 10 -48 10 -4 15
1 16 17 0 12 2 36 5 52 3 17 6 46 7 65 2 20 5 40 8 45 3 6 5 25 3 43 -1 17 3
32 8 32 6 0 5 7 -2 15 -12 14 -7 20 15 15 6 -1 4 4 -2 11 -18 18 -16 32 3 25
13 -5 14 -3 7 6 -13 16 -14 68 -1 68 5 0 4 8 -1 19 -6 10 -8 20 -6 22 6 6 14
91 17 167 1 34 5 62 9 62 4 0 5 8 2 19 -2 10 4 26 14 36 17 18 17 18 0 12 -14
-5 -16 -2 -12 16 3 12 7 87 9 167 2 80 8 174 14 210 6 36 14 110 17 165 3 55
12 192 20 305 21 290 23 317 29 390 3 36 8 99 11 140 8 116 15 182 21 192 3 4
-11 8 -30 8 -30 0 -36 -4 -37 -22z"/>
<path d="M1261 3431 c-1 -114 16 -569 29 -776 8 -116 8 -109 4 70 -5 234 -14
473 -24 670 l-7 140 -2 -104z"/>
<path d="M1303 3425 c0 -33 2 -45 4 -27 2 18 2 45 0 60 -2 15 -4 0 -4 -33z"/>
<path d="M3562 3420 c0 -14 2 -19 5 -12 2 6 2 18 0 25 -3 6 -5 1 -5 -13z"/>
<path d="M3556 3374 c-4 -9 -4 -19 -1 -22 2 -3 7 3 11 12 4 9 4 19 1 22 -2 3
-7 -3 -11 -12z"/>
<path d="M3550 3318 c0 -19 2 -20 10 -8 13 19 13 30 0 30 -5 0 -10 -10 -10
-22z"/>
<path d="M662 3290 c0 -14 2 -19 5 -12 2 6 2 18 0 25 -3 6 -5 1 -5 -13z"/>
<path d="M166 3285 c-3 -9 0 -15 9 -15 9 0 12 6 9 15 -4 8 -7 15 -9 15 -2 0
-5 -7 -9 -15z"/>
<path d="M1314 3165 c0 -71 1 -99 3 -62 2 37 2 96 0 130 -2 34 -3 4 -3 -68z"/>
<path d="M3547 3276 c-4 -10 -5 -21 -2 -24 9 -9 17 6 13 25 -3 17 -4 17 -11
-1z"/>
<path d="M743 3215 c0 -22 2 -30 4 -17 2 12 2 30 0 40 -3 9 -5 -1 -4 -23z"/>
<path d="M660 3230 c0 -5 4 -10 8 -10 10 0 10 -41 0 -56 -4 -6 -6 -34 -4 -62
2 -29 -1 -52 -6 -52 -5 0 -6 -6 -2 -12 5 -7 9 -56 10 -109 3 -148 21 -319 35
-319 4 0 6 7 3 15 -4 9 0 15 9 15 9 0 19 10 23 23 10 31 13 208 3 234 -5 14
-4 23 4 27 7 2 3 5 -8 5 -15 1 -17 3 -7 10 11 6 11 16 3 47 -6 22 -11 53 -11
71 0 17 -5 35 -11 39 -6 3 -9 15 -6 25 3 11 2 19 -1 19 -4 0 -7 17 -7 38 0 20
-5 43 -12 50 -14 15 -23 16 -23 2z"/>
<path d="M3540 3219 c0 -11 5 -17 10 -14 6 3 10 13 10 21 0 8 -4 14 -10 14 -5
0 -10 -9 -10 -21z"/>
<path d="M1733 3195 c-9 -29 -9 -35 3 -35 9 0 14 12 14 35 0 19 -1 35 -3 35
-2 0 -8 -16 -14 -35z"/>
<path d="M300 3182 c0 -13 12 -21 50 -32 24 -7 30 -5 30 6 0 8 -4 13 -9 10 -5
-4 -11 -2 -13 3 -5 14 -58 25 -58 13z"/>
<path d="M3542 3170 c0 -14 2 -19 5 -12 2 6 2 18 0 25 -3 6 -5 1 -5 -13z"/>
<path d="M1806 3165 c-3 -8 -1 -15 4 -15 6 0 10 7 10 15 0 8 -2 15 -4 15 -2 0
-6 -7 -10 -15z"/>
<path d="M753 3100 c0 -36 2 -50 4 -32 2 17 2 47 0 65 -2 17 -4 3 -4 -33z"/>
<path d="M1841 3151 c-8 -5 -9 -11 -3 -15 5 -3 12 1 16 9 6 17 6 18 -13 6z"/>
<path d="M1760 3136 c7 -7 13 -7 20 0 6 6 3 10 -10 10 -13 0 -16 -4 -10 -10z"/>
<path d="M3530 3119 c0 -11 5 -17 10 -14 6 3 10 13 10 21 0 8 -4 14 -10 14 -5
0 -10 -9 -10 -21z"/>
<path d="M1855 3119 c-4 -6 -5 -12 -2 -15 2 -3 7 2 10 11 7 17 1 20 -8 4z"/>
<path d="M2003 3115 c-3 -9 -3 -18 -1 -21 3 -3 8 4 11 16 6 23 -1 27 -10 5z"/>
<path d="M3531 3074 c0 -11 3 -14 6 -6 3 7 2 16 -1 19 -3 4 -6 -2 -5 -13z"/>
<path d="M3451 3054 c0 -11 3 -14 6 -6 3 7 2 16 -1 19 -3 4 -6 -2 -5 -13z"/>
<path d="M3525 3037 c-4 -10 -5 -21 -1 -24 10 -10 18 4 13 24 -4 17 -4 17 -12
0z"/>
<path d="M58 3023 c7 -3 16 -2 19 1 4 3 -2 6 -13 5 -11 0 -14 -3 -6 -6z"/>
<path d="M1324 2885 c0 -66 1 -92 3 -57 2 34 2 88 0 120 -2 31 -3 3 -3 -63z"/>
<path d="M3522 2980 c0 -14 2 -19 5 -12 2 6 2 18 0 25 -3 6 -5 1 -5 -13z"/>
<path d="M215 2980 c-3 -5 -1 -10 4 -10 6 0 11 5 11 10 0 6 -2 10 -4 10 -3 0
-8 -4 -11 -10z"/>
<path d="M760 2922 c0 -40 4 -72 9 -72 8 0 3 130 -5 139 -2 2 -4 -28 -4 -67z"/>
<path d="M180 2970 c-8 -5 -50 -24 -92 -41 -43 -18 -78 -36 -78 -41 0 -11 -2
-12 65 23 28 15 67 32 88 38 20 7 37 17 37 22 0 11 0 11 -20 -1z"/>
<path d="M3517 2936 c-4 -10 -5 -21 -2 -24 9 -9 17 6 13 25 -3 17 -4 17 -11
-1z"/>
<path d="M3441 2914 c0 -11 3 -14 6 -6 3 7 2 16 -1 19 -3 4 -6 -2 -5 -13z"/>
<path d="M3508 2860 c-2 -22 -1 -40 3 -40 4 0 9 18 11 40 2 22 1 40 -3 40 -4
0 -9 -18 -11 -40z"/>
<path d="M3431 2824 c0 -11 3 -14 6 -6 3 7 2 16 -1 19 -3 4 -6 -2 -5 -13z"/>
<path d="M768 2796 c-7 -39 -4 -55 8 -44 3 3 4 23 2 44 l-3 39 -7 -39z"/>
<path d="M3500 2791 c0 -15 6 -21 21 -21 25 0 22 33 -4 38 -12 2 -17 -3 -17
-17z"/>
<path d="M3431 2784 c0 -11 3 -14 6 -6 3 7 2 16 -1 19 -3 4 -6 -2 -5 -13z"/>
<path d="M770 2729 c0 -5 5 -7 10 -4 6 3 10 8 10 11 0 2 -4 4 -10 4 -5 0 -10
-5 -10 -11z"/>
<path d="M2165 2709 c-4 -15 -5 -35 -3 -46 2 -15 7 -17 23 -8 20 10 20 11 4
45 l-17 35 -7 -26z"/>
<path d="M1779 2698 c-17 -33 -18 -33 -34 -12 -15 18 -15 18 -29 0 -12 -14
-12 -21 -3 -31 8 -8 16 -10 23 -4 13 11 36 8 45 -5 4 -5 12 -5 18 -2 14 9 14
56 0 56 -5 0 -7 5 -4 10 3 6 4 10 1 10 -3 0 -11 -10 -17 -22z"/>
<path d="M1910 2706 c0 -8 -7 -22 -16 -30 -14 -15 -14 -16 0 -16 9 0 16 -6 16
-12 0 -7 7 -3 14 8 8 12 12 31 9 42 -6 25 -23 30 -23 8z"/>
<path d="M1654 2692 c-4 -12 -10 -22 -15 -22 -5 0 -9 -4 -9 -10 0 -5 7 -7 15
-4 8 4 15 1 15 -5 0 -19 18 -12 25 10 5 14 1 27 -9 38 -15 15 -17 14 -22 -7z"/>
<path d="M1836 2693 c-3 -10 -9 -24 -12 -31 -4 -8 0 -10 10 -6 9 3 16 1 16 -6
0 -6 4 -9 9 -5 13 7 8 58 -5 62 -6 2 -14 -4 -18 -14z"/>
<path d="M2027 2688 c-15 -23 -15 -23 -31 -3 -16 19 -16 20 -30 1 -13 -16 -13
-20 0 -34 11 -11 18 -12 27 -3 15 15 47 14 47 -1 0 -9 5 -8 15 2 8 9 12 24 9
38 -8 28 -18 28 -37 0z"/>
<path d="M3421 2694 c0 -11 3 -14 6 -6 3 7 2 16 -1 19 -3 4 -6 -2 -5 -13z"/>
<path d="M1525 2690 c-3 -5 -1 -10 4 -10 6 0 11 5 11 10 0 6 -2 10 -4 10 -3 0
-8 -4 -11 -10z"/>
<path d="M3421 2644 c0 -11 3 -14 6 -6 3 7 2 16 -1 19 -3 4 -6 -2 -5 -13z"/>
<path d="M2515 2640 c-3 -5 -1 -10 4 -10 6 0 11 5 11 10 0 6 -2 10 -4 10 -3 0
-8 -4 -11 -10z"/>
<path d="M2481 2623 c0 -6 -4 -18 -7 -27 -4 -11 0 -14 15 -11 12 2 21 0 21 -6
0 -5 -15 -9 -32 -10 -18 0 -27 -3 -20 -6 6 -2 13 -17 13 -31 2 -25 2 -25 6 -4
5 25 28 25 28 -1 0 -8 4 -19 9 -24 5 -4 6 -3 3 3 -3 6 0 22 8 37 8 17 10 27 3
27 -5 0 -8 7 -4 15 3 10 -1 15 -14 15 -10 0 -21 8 -23 18 -3 9 -5 12 -6 5z"/>
<path d="M118 2590 c-3 -17 -1 -33 2 -35 8 -5 17 -80 24 -205 5 -78 19 -223
32 -327 4 -30 10 -43 21 -43 14 0 15 10 10 73 -12 131 -48 501 -53 535 -6 41
-30 42 -36 2z"/>
<path d="M171 2604 c0 -11 3 -14 6 -6 3 7 2 16 -1 19 -3 4 -6 -2 -5 -13z"/>
<path d="M480 2613 c0 -5 16 -16 35 -25 29 -15 35 -15 35 -3 0 8 -6 12 -13 9
-8 -3 -20 2 -27 11 -13 16 -30 20 -30 8z"/>
<path d="M1790 2600 c9 -16 8 -18 -5 -14 -8 4 -15 1 -15 -5 0 -6 9 -11 21 -11
15 0 19 4 15 16 -3 9 -6 20 -6 25 0 5 -5 9 -10 9 -7 0 -7 -6 0 -20z"/>
<path d="M3487 2606 c-4 -10 -5 -21 -2 -24 9 -9 17 6 13 25 -3 17 -4 17 -11
-1z"/>
<path d="M1820 2588 c0 -10 38 -20 49 -13 5 3 12 1 16 -5 4 -7 -77 -10 -244
-10 -178 0 -251 -3 -251 -11 0 -7 12 -10 30 -7 17 3 30 1 30 -4 0 -9 102 -4
119 6 6 4 11 4 11 -1 0 -4 20 -9 45 -9 24 -1 42 2 40 6 -3 5 4 6 15 3 12 -3
20 -14 20 -26 0 -18 2 -19 18 -5 56 48 81 24 73 -72 -2 -19 -20 -10 -24 13 -2
12 -5 2 -5 -23 0 -32 2 -39 7 -25 7 16 10 11 16 -25 7 -40 9 -42 16 -22 5 13
7 47 5 75 -2 29 -2 64 1 78 4 23 9 26 44 25 23 0 39 -6 39 -13 0 -9 7 -8 28 2
25 14 27 13 34 -8 5 -20 6 -20 7 -2 1 15 3 17 10 6 6 -9 11 -10 15 -2 10 16
26 13 26 -5 0 -14 1 -14 16 0 8 9 24 21 35 27 23 12 16 31 -9 22 -15 -6 -15
-5 -3 10 16 20 18 19 -46 22 -46 2 -53 -1 -53 -16 0 -12 -7 -19 -20 -19 -11 0
-19 3 -19 8 4 22 -5 27 -46 27 -25 0 -45 -3 -45 -7z"/>
<path d="M2150 2549 c0 -27 5 -49 10 -49 6 0 10 7 10 15 0 14 12 19 33 16 4 0
7 14 7 32 0 31 -3 34 -30 35 -29 1 -30 0 -30 -49z"/>
<path d="M1450 2576 c7 -7 14 -6 21 1 9 9 7 12 -9 10 -14 -1 -18 -5 -12 -11z"/>
<path d="M1510 2579 c0 -5 5 -7 10 -4 6 3 10 8 10 11 0 2 -4 4 -10 4 -5 0 -10
-5 -10 -11z"/>
<path d="M1700 2580 c0 -5 9 -10 20 -10 11 0 20 5 20 10 0 6 -9 10 -20 10 -11
0 -20 -4 -20 -10z"/>
<path d="M3480 2555 c0 -8 5 -15 10 -15 6 0 10 7 10 15 0 8 -4 15 -10 15 -5 0
-10 -7 -10 -15z"/>
<path d="M574 2551 c7 -11 46 -35 46 -28 0 3 -12 12 -26 22 -15 9 -23 12 -20
6z"/>
<path d="M3482 2510 c0 -14 2 -19 5 -12 2 6 2 18 0 25 -3 6 -5 1 -5 -13z"/>
<path d="M1761 2504 c0 -11 3 -14 6 -6 3 7 2 16 -1 19 -3 4 -6 -2 -5 -13z"/>
<path d="M183 2460 c0 -25 2 -35 4 -22 2 12 2 32 0 45 -2 12 -4 2 -4 -23z"/>
<path d="M3470 2465 c0 -8 5 -15 10 -15 6 0 10 7 10 15 0 8 -4 15 -10 15 -5 0
-10 -7 -10 -15z"/>
<path d="M2202 2445 c0 -16 2 -22 5 -12 2 9 2 23 0 30 -3 6 -5 -1 -5 -18z"/>
<path d="M1833 2453 c-7 -3 -13 -11 -13 -19 0 -9 5 -12 10 -9 6 3 10 1 10 -4
0 -6 -4 -11 -10 -11 -5 0 -10 -4 -10 -10 0 -22 26 -8 37 19 11 31 2 43 -24 34z"/>
<path d="M403 2431 c1 -12 5 -21 9 -21 4 0 8 -8 8 -17 0 -15 2 -16 10 -3 6 10
6 16 0 18 -6 2 -8 7 -5 12 3 4 -2 13 -10 20 -11 9 -14 8 -12 -9z"/>
<path d="M1703 2415 c0 -22 2 -30 4 -17 2 12 2 30 0 40 -3 9 -5 -1 -4 -23z"/>
<path d="M2010 2436 c0 -8 6 -17 13 -19 10 -4 10 -6 0 -6 -7 -1 -13 -11 -13
-23 0 -20 1 -21 16 -7 10 11 13 24 8 42 -6 28 -24 37 -24 13z"/>
<path d="M2472 2425 c0 -16 2 -22 5 -12 2 9 2 23 0 30 -3 6 -5 -1 -5 -18z"/>
<path d="M2498 2427 c-3 -19 -2 -25 4 -19 6 6 8 18 6 28 -3 14 -5 12 -10 -9z"/>
<path d="M1905 2429 c-4 -6 -5 -12 -2 -15 2 -3 7 2 10 11 7 17 1 20 -8 4z"/>
<path d="M1951 2424 c0 -11 3 -14 6 -6 3 7 2 16 -1 19 -3 4 -6 -2 -5 -13z"/>
<path d="M2173 2428 c-7 -9 -5 -18 7 -31 14 -14 19 -15 23 -5 2 8 -1 22 -8 31
-10 14 -15 15 -22 5z"/>
<path d="M3401 2424 c0 -11 3 -14 6 -6 3 7 2 16 -1 19 -3 4 -6 -2 -5 -13z"/>
<path d="M3470 2415 c0 -8 2 -15 4 -15 2 0 6 7 10 15 3 8 1 15 -4 15 -6 0 -10
-7 -10 -15z"/>
<path d="M1895 2390 c3 -5 8 -10 11 -10 2 0 4 5 4 10 0 6 -5 10 -11 10 -5 0
-7 -4 -4 -10z"/>
<path d="M2156 2393 c-11 -11 -7 -20 9 -20 8 0 15 4 15 8 0 11 -16 20 -24 12z"/>
<path d="M3466 2375 c-3 -8 -1 -15 4 -15 6 0 10 7 10 15 0 8 -2 15 -4 15 -2 0
-6 -7 -10 -15z"/>
<path d="M3460 2325 c0 -8 5 -15 10 -15 6 0 10 7 10 15 0 8 -4 15 -10 15 -5 0
-10 -7 -10 -15z"/>
<path d="M1746 2322 c-241 -2 -322 -5 -328 -15 -6 -9 -8 -9 -8 1 0 6 -4 12
-10 12 -5 0 -7 -7 -4 -15 4 -10 13 -13 25 -10 10 3 27 1 39 -5 11 -6 20 -7 20
-2 0 5 25 9 55 8 30 0 49 -4 42 -8 -8 -5 -4 -8 11 -8 12 0 22 5 22 10 0 14 28
12 33 -2 3 -10 7 -10 18 -2 15 12 87 11 127 -1 15 -5 22 -3 22 6 0 11 2 11 10
-1 5 -8 10 -10 10 -5 0 6 24 11 55 11 30 1 55 -3 55 -7 0 -9 26 -6 36 4 11 11
46 8 39 -3 -4 -6 -1 -9 6 -8 15 3 55 36 48 40 -2 2 -148 2 -323 0z"/>
<path d="M2140 2321 c0 -5 -3 -16 -6 -24 -4 -12 0 -13 30 -3 44 13 48 36 6 36
-16 0 -30 -4 -30 -9z"/>
<path d="M325 2300 c3 -5 8 -10 11 -10 2 0 4 5 4 10 0 6 -5 10 -11 10 -5 0 -7
-4 -4 -10z"/>
<path d="M3391 2294 c0 -11 3 -14 6 -6 3 7 2 16 -1 19 -3 4 -6 -2 -5 -13z"/>
<path d="M3461 2284 c0 -11 3 -14 6 -6 3 7 2 16 -1 19 -3 4 -6 -2 -5 -13z"/>
<path d="M370 2265 c6 -8 8 -20 4 -26 -4 -8 -3 -9 4 -5 7 4 12 2 12 -3 0 -6 5
-11 10 -11 14 0 13 33 -2 48 -7 7 -18 12 -26 12 -12 0 -12 -3 -2 -15z"/>
<path d="M3381 2254 c0 -11 3 -14 6 -6 3 7 2 16 -1 19 -3 4 -6 -2 -5 -13z"/>
<path d="M536 2251 c-4 -7 -5 -15 -2 -18 9 -9 19 4 14 18 -4 11 -6 11 -12 0z"/>
<path d="M3450 2241 c0 -6 5 -13 10 -16 6 -3 10 1 10 9 0 9 -4 16 -10 16 -5 0
-10 -4 -10 -9z"/>
<path d="M434 2220 c0 -13 4 -16 10 -10 7 7 7 13 0 20 -6 6 -10 3 -10 -10z"/>
<path d="M202 2210 c0 -14 2 -19 5 -12 2 6 2 18 0 25 -3 6 -5 1 -5 -13z"/>
<path d="M262 2210 c0 -14 2 -19 5 -12 2 6 2 18 0 25 -3 6 -5 1 -5 -13z"/>
<path d="M502 2216 c2 -8 -9 -25 -24 -39 -29 -27 -36 -51 -18 -62 6 -3 10 -11
10 -16 0 -6 -5 -7 -10 -4 -13 8 -9 -17 4 -27 6 -4 5 -12 -2 -21 -7 -7 -9 -17
-5 -20 11 -11 51 -8 59 4 5 9 -1 10 -20 5 -28 -7 -34 4 -13 26 7 7 17 31 24
53 6 22 16 55 21 73 6 18 7 30 1 27 -5 -4 -9 -1 -9 4 0 6 -5 11 -10 11 -6 0
-10 -6 -8 -14z"/>
<path d="M547 2207 c-3 -8 1 -14 9 -14 8 0 14 6 14 14 0 7 -4 13 -9 13 -5 0
-11 -6 -14 -13z"/>
<path d="M3450 2196 c0 -9 5 -16 10 -16 6 0 10 4 10 9 0 6 -4 13 -10 16 -5 3
-10 -1 -10 -9z"/>
<path d="M330 2180 c0 -5 5 -10 11 -10 5 0 7 5 4 10 -3 6 -8 10 -11 10 -2 0
-4 -4 -4 -10z"/>
<path d="M3375 2170 c-3 -5 -1 -10 4 -10 6 0 11 5 11 10 0 6 -2 10 -4 10 -3 0
-8 -4 -11 -10z"/>
<path d="M335 2150 c3 -5 11 -10 16 -10 6 0 7 5 4 10 -3 6 -11 10 -16 10 -6 0
-7 -4 -4 -10z"/>
<path d="M212 2120 c0 -14 2 -19 5 -12 2 6 2 18 0 25 -3 6 -5 1 -5 -13z"/>
<path d="M411 2114 c15 -16 25 -21 28 -13 2 7 -4 18 -15 26 -30 22 -39 15 -13
-13z"/>
<path d="M265 2120 c3 -5 8 -10 11 -10 2 0 4 5 4 10 0 6 -5 10 -11 10 -5 0 -7
-4 -4 -10z"/>
<path d="M3560 2121 c0 -6 5 -13 10 -16 6 -3 10 1 10 9 0 9 -4 16 -10 16 -5 0
-10 -4 -10 -9z"/>
<path d="M520 2102 c0 -12 3 -12 15 -2 8 7 15 13 15 15 0 1 -7 2 -15 2 -8 0
-15 -7 -15 -15z"/>
<path d="M3440 2111 c0 -5 5 -13 10 -16 6 -3 10 -2 10 4 0 5 -4 13 -10 16 -5
3 -10 2 -10 -4z"/>
<path d="M391 2094 c0 -11 3 -14 6 -6 3 7 2 16 -1 19 -3 4 -6 -2 -5 -13z"/>
<path d="M1135 2096 c11 -8 24 -12 28 -9 11 7 -12 23 -32 23 -11 0 -9 -4 4
-14z"/>
<path d="M3560 2070 c0 -5 5 -10 10 -10 6 0 10 5 10 10 0 6 -4 10 -10 10 -5 0
-10 -4 -10 -10z"/>
<path d="M3440 2060 c0 -5 5 -10 11 -10 5 0 7 5 4 10 -3 6 -8 10 -11 10 -2 0
-4 -4 -4 -10z"/>
<path d="M749 2048 c-6 -67 -6 -79 1 -71 13 14 22 83 10 83 -5 0 -10 -6 -11
-12z"/>
<path d="M3063 2001 c-7 -19 -13 -42 -13 -51 0 -9 -9 -25 -20 -35 -21 -19 -21
-19 10 -38 17 -11 33 -17 36 -14 3 2 4 42 2 88 -3 80 -4 82 -15 50z"/>
<path d="M3435 2020 c-3 -5 -1 -10 4 -10 6 0 11 5 11 10 0 6 -2 10 -4 10 -3 0
-8 -4 -11 -10z"/>
<path d="M3550 2020 c0 -5 7 -10 15 -10 8 0 15 5 15 10 0 6 -7 10 -15 10 -8 0
-15 -4 -15 -10z"/>
<path d="M281 2004 c0 -11 3 -14 6 -6 3 7 2 16 -1 19 -3 4 -6 -2 -5 -13z"/>
<path d="M1295 1990 c-3 -6 1 -7 9 -4 18 7 21 14 7 14 -6 0 -13 -4 -16 -10z"/>
<path d="M3552 1978 c5 -15 28 -23 28 -10 0 5 -7 13 -16 16 -10 4 -14 1 -12
-6z"/>
<path d="M3435 1970 c3 -5 8 -10 11 -10 2 0 4 5 4 10 0 6 -5 10 -11 10 -5 0
-7 -4 -4 -10z"/>
<path d="M3430 1930 c0 -5 5 -10 11 -10 5 0 7 5 4 10 -3 6 -8 10 -11 10 -2 0
-4 -4 -4 -10z"/>
<path d="M3550 1931 c0 -5 7 -11 15 -15 8 -3 15 -1 15 3 0 5 -7 11 -15 15 -8
3 -15 1 -15 -3z"/>
<path d="M2900 1910 c0 -5 5 -10 10 -10 6 0 10 5 10 10 0 6 -4 10 -10 10 -5 0
-10 -4 -10 -10z"/>
<path d="M750 1880 c0 -32 14 -40 24 -14 10 27 7 44 -9 44 -10 0 -15 -10 -15
-30z"/>
<path d="M3097 1903 c-4 -3 -7 -18 -7 -31 0 -31 7 -26 14 11 5 28 4 31 -7 20z"/>
<path d="M3545 1880 c3 -5 13 -10 21 -10 8 0 12 5 9 10 -3 6 -13 10 -21 10 -8
0 -12 -4 -9 -10z"/>
<path d="M3550 1830 c20 -13 33 -13 25 0 -3 6 -14 10 -23 10 -15 0 -15 -2 -2
-10z"/>
<path d="M3420 1800 c0 -5 5 -10 11 -10 5 0 7 5 4 10 -3 6 -8 10 -11 10 -2 0
-4 -4 -4 -10z"/>
<path d="M3544 1785 c11 -8 25 -15 30 -15 6 0 2 7 -8 15 -11 8 -25 15 -30 15
-6 0 -2 -7 8 -15z"/>
<path d="M2800 1780 c0 -5 5 -10 10 -10 6 0 10 5 10 10 0 6 -4 10 -10 10 -5 0
-10 -4 -10 -10z"/>
<path d="M3531 1746 c2 -2 15 -9 29 -16 23 -12 24 -12 11 3 -7 10 -20 17 -29
17 -8 0 -13 -2 -11 -4z"/>
<path d="M3410 1720 c0 -5 5 -10 11 -10 5 0 7 5 4 10 -3 6 -8 10 -11 10 -2 0
-4 -4 -4 -10z"/>
<path d="M1950 1700 c0 -5 4 -10 9 -10 6 0 13 5 16 10 3 6 -1 10 -9 10 -9 0
-16 -4 -16 -10z"/>
<path d="M3520 1705 c0 -2 14 -11 30 -20 17 -9 30 -12 30 -7 0 5 -11 14 -25
20 -28 13 -35 14 -35 7z"/>
<path d="M58 1683 c7 -3 16 -2 19 1 4 3 -2 6 -13 5 -11 0 -14 -3 -6 -6z"/>
<path d="M10 1660 c0 -6 7 -13 15 -16 21 -8 67 4 60 16 -8 13 -75 13 -75 0z"/>
<path d="M3520 1661 c0 -9 48 -36 54 -30 3 2 -9 12 -25 21 -16 9 -29 14 -29 9z"/>
<path d="M1765 1651 c-6 -11 9 -23 19 -14 9 9 7 23 -3 23 -6 0 -12 -4 -16 -9z"/>
<path d="M3400 1636 c0 -2 7 -7 16 -10 8 -3 12 -2 9 4 -6 10 -25 14 -25 6z"/>
<path d="M3539 1600 c13 -11 27 -20 32 -20 18 0 8 10 -23 25 l-33 16 24 -21z"/>
<path d="M1890 1601 c0 -6 4 -12 9 -16 6 -3 6 -17 1 -35 -6 -20 -5 -30 2 -30
6 0 6 -6 -2 -15 -7 -8 -10 -22 -6 -30 9 -25 35 -17 42 13 3 15 9 36 13 47 9
23 4 45 -11 45 -6 0 -8 -6 -5 -13 3 -8 0 -14 -7 -14 -8 0 -10 11 -8 29 3 21 0
28 -12 28 -9 0 -16 -4 -16 -9z"/>
<path d="M270 1575 c0 -8 8 -15 18 -15 15 -1 15 -2 1 -10 -10 -6 -14 -19 -11
-44 5 -44 14 -45 42 -6 l21 29 -21 21 c-11 11 -25 20 -31 20 -5 0 -7 5 -4 10
3 6 1 10 -4 10 -6 0 -11 -7 -11 -15z m40 -61 c0 -20 -7 -17 -20 6 -9 16 -8 18
5 14 8 -4 15 -12 15 -20z"/>
<path d="M35 1571 c-3 -6 -11 -9 -16 -6 -5 4 -9 2 -9 -2 0 -5 36 -10 80 -11
50 -2 80 1 80 8 0 5 -19 10 -42 10 -24 0 -53 3 -64 6 -12 3 -25 1 -29 -5z"/>
<path d="M3514 1571 c4 -6 22 -18 39 -27 30 -14 31 -14 12 1 -30 25 -59 39
-51 26z"/>
<path d="M185 1560 c3 -5 8 -10 11 -10 2 0 4 5 4 10 0 6 -5 10 -11 10 -5 0 -7
-4 -4 -10z"/>
<path d="M432 1565 c10 -11 48 -14 53 -4 4 5 -8 9 -26 9 -18 0 -30 -2 -27 -5z"/>
<path d="M593 1563 c9 -2 23 -2 30 0 6 3 -1 5 -18 5 -16 0 -22 -2 -12 -5z"/>
<path d="M2075 1520 c0 -22 5 -30 18 -30 9 0 17 5 17 10 0 6 -4 10 -9 10 -5 0
-8 7 -7 16 0 9 -3 18 -9 20 -5 2 -10 -9 -10 -26z"/>
<path d="M1766 1524 c-10 -25 -7 -41 4 -24 9 13 11 13 20 0 5 -8 10 -10 10 -5
-1 6 -7 18 -14 28 -12 16 -14 16 -20 1z"/>
<path d="M1810 1518 c0 -7 10 -14 21 -15 12 -1 20 -1 18 0 -2 2 -12 9 -21 16
-15 11 -18 11 -18 -1z"/>
<path d="M3510 1526 c0 -2 16 -13 36 -25 19 -12 32 -16 29 -11 -7 11 -65 43
-65 36z"/>
<path d="M1810 1479 c0 -5 5 -7 10 -4 6 3 10 8 10 11 0 2 -4 4 -10 4 -5 0 -10
-5 -10 -11z"/>
<path d="M3500 1486 c0 -3 9 -10 20 -16 11 -6 20 -8 20 -6 0 3 -9 10 -20 16
-11 6 -20 8 -20 6z"/>
<path d="M712 1435 c0 -16 2 -22 5 -12 2 9 2 23 0 30 -3 6 -5 -1 -5 -18z"/>
<path d="M1870 1428 c0 -15 -26 -33 -43 -29 -4 0 -21 -6 -37 -14 -30 -16 -35
-31 -24 -73 l7 -23 29 28 c29 27 29 27 35 5 14 -54 53 3 48 71 -2 37 -15 66
-15 35z"/>
<path d="M3500 1396 c0 -2 8 -10 18 -17 15 -13 16 -12 3 4 -13 16 -21 21 -21
13z"/>
<path d="M37 1303 c-15 -2 -27 -9 -27 -15 0 -14 215 -5 250 10 20 8 1 11 -85
10 -60 -1 -122 -3 -138 -5z"/>
<path d="M478 1223 c6 -2 18 -2 25 0 6 3 1 5 -13 5 -14 0 -19 -2 -12 -5z"/>
<path d="M2810 1169 c0 -5 5 -7 10 -4 6 3 10 8 10 11 0 2 -4 4 -10 4 -5 0 -10
-5 -10 -11z"/>
<path d="M1765 1040 c-3 -6 1 -7 9 -4 18 7 21 14 7 14 -6 0 -13 -4 -16 -10z"/>
<path d="M1700 1010 c-8 -5 -10 -10 -5 -10 6 0 17 5 25 10 8 5 11 10 5 10 -5
0 -17 -5 -25 -10z"/>
<path d="M1900 990 c8 -5 20 -10 25 -10 6 0 3 5 -5 10 -8 5 -19 10 -25 10 -5
0 -3 -5 5 -10z"/>
<path d="M3468 723 c22 -27 57 -64 78 -83 21 -19 5 2 -36 48 -79 88 -107 112
-42 35z"/>
<path d="M2152 410 c-2 -33 0 -41 8 -30 7 12 10 8 10 -17 0 -23 5 -33 15 -33
8 0 15 6 15 14 0 8 7 17 16 20 22 9 24 8 24 -9 0 -8 8 -15 19 -15 10 0 21 -9
24 -20 3 -12 14 -20 26 -20 12 0 21 -4 21 -9 0 -5 10 -13 22 -17 12 -3 28 -13
36 -20 7 -8 20 -14 28 -14 8 0 14 -4 14 -9 0 -5 9 -13 20 -16 11 -3 20 -13 20
-21 0 -9 11 -14 31 -14 35 0 36 -23 1 -28 -13 -2 -19 -8 -15 -18 3 -8 -1 -14
-10 -14 -10 0 -13 -7 -10 -20 4 -14 0 -20 -11 -20 -9 0 -16 -7 -16 -15 0 -8
-9 -15 -19 -15 -11 0 -23 -4 -26 -10 -4 -6 17 -10 57 -10 87 0 138 10 138 26
0 8 5 14 11 14 6 0 9 9 6 20 -3 13 0 20 10 20 9 0 13 6 9 15 -4 11 1 15 19 15
14 0 25 4 25 9 0 25 -14 41 -36 41 -13 0 -28 9 -34 20 -6 11 -17 20 -24 20 -8
0 -16 7 -20 15 -3 8 -12 15 -20 15 -7 0 -16 7 -20 15 -3 8 -16 15 -30 15 -13
0 -26 7 -30 15 -3 8 -11 15 -18 15 -7 0 -25 11 -40 25 -15 14 -39 25 -53 25
-16 0 -25 6 -25 15 0 8 -9 15 -19 15 -10 0 -21 7 -25 15 -3 8 -12 15 -20 15
-8 0 -16 6 -19 13 -2 7 -21 12 -44 12 l-39 0 -2 -45z"/>
<path d="M2228 283 c-16 -2 -28 -11 -28 -19 0 -8 -4 -14 -9 -14 -6 0 -8 -15
-6 -32 3 -18 7 -54 10 -80 7 -57 38 -93 88 -101 32 -5 37 -3 37 14 0 10 7 19
15 19 8 0 15 9 15 20 0 14 7 20 21 20 15 0 19 5 15 15 -4 11 2 15 20 15 21 0
25 4 22 23 -2 15 -11 23 -30 25 -16 2 -30 11 -33 23 -4 10 -14 19 -24 19 -10
0 -24 7 -31 15 -7 8 -16 13 -20 10 -4 -3 -10 4 -13 15 -3 11 -9 19 -14 19 -4
-1 -20 -4 -35 -6z m52 -113 c0 -5 -9 -10 -20 -10 -11 0 -20 5 -20 10 0 6 9 10
20 10 11 0 20 -4 20 -10z"/>
<path d="M290 250 c-6 -11 -21 -20 -34 -20 -13 0 -29 -6 -35 -14 -7 -8 -20
-12 -31 -9 -12 3 -23 -3 -32 -16 -7 -12 -18 -21 -24 -21 -18 0 -51 -42 -37
-47 7 -2 9 -11 6 -19 -3 -9 1 -14 12 -14 11 0 15 -5 11 -15 -9 -23 55 -46 109
-38 31 4 49 13 60 29 8 13 22 24 31 24 8 0 17 7 20 15 4 8 16 15 28 15 15 0
27 9 34 25 10 21 9 25 -4 25 -10 0 -14 6 -10 15 3 9 0 15 -9 15 -9 0 -12 6 -9
15 4 10 0 15 -16 15 -17 0 -20 4 -15 20 5 16 2 20 -19 20 -15 0 -30 -8 -36
-20z m-20 -105 c-7 -8 -16 -12 -21 -9 -13 8 -1 24 18 24 13 0 13 -3 3 -15z"/>
<path d="M1250 255 c0 -8 -9 -15 -20 -15 -11 0 -23 -7 -26 -15 -4 -8 -17 -15
-31 -15 -16 0 -27 -7 -30 -20 -3 -11 -11 -20 -19 -20 -7 0 -18 -9 -24 -20 -9
-16 -8 -22 5 -26 8 -3 15 -12 15 -20 0 -8 10 -14 26 -14 21 0 24 -4 19 -20 -5
-16 -2 -20 14 -20 12 0 21 -4 21 -10 0 -5 16 -10 35 -10 19 0 35 5 35 10 0 6
9 10 20 10 12 0 25 10 32 25 6 14 17 25 25 25 20 0 53 37 53 60 0 11 -4 20
-10 20 -5 0 -7 7 -4 15 4 10 0 15 -15 15 -12 0 -21 6 -21 15 0 8 -9 15 -20 15
-13 0 -18 5 -14 15 5 12 -2 15 -30 15 -25 0 -36 -4 -36 -15z m20 -105 c0 -5
-7 -10 -16 -10 -8 0 -12 5 -9 10 3 6 10 10 16 10 5 0 9 -4 9 -10z"/>
<path d="M2755 90 c5 -16 2 -20 -14 -20 -12 0 -21 -6 -21 -14 0 -8 -10 -17
-22 -19 -13 -2 29 -5 92 -5 63 0 109 2 103 5 -7 2 -13 11 -13 19 0 9 -11 14
-29 14 -20 0 -30 6 -34 20 -4 15 -14 20 -37 20 -27 0 -30 -3 -25 -20z"/>
<path d="M1720 80 c0 -13 -7 -20 -20 -20 -11 0 -20 -7 -20 -15 0 -12 16 -15
85 -15 69 0 85 3 85 15 0 10 -10 15 -30 15 -23 0 -30 4 -30 20 0 16 -7 20 -35
20 -28 0 -35 -4 -35 -20z"/>
<path d="M693 61 c-7 -11 -25 -21 -40 -24 -15 -2 6 -5 48 -6 76 -1 76 -1 71
24 -3 20 -10 25 -36 25 -20 0 -35 -7 -43 -19z"/>
</g>
</svg>
